<svg xmlns="http://www.w3.org/2000/svg" width="18" height="15" viewBox="0 0 18 15"><g><g><path d="M17.353 2.482a7.394 7.394 0 0 1-2.098.565 3.605 3.605 0 0 0 1.606-1.983 7.41 7.41 0 0 1-2.32.87A3.681 3.681 0 0 0 11.874.802C9.857.802 8.22 2.407 8.22 4.387c0 .28.033.554.095.816A10.44 10.44 0 0 1 .785 1.46 3.513 3.513 0 0 0 .29 3.26c0 1.244.645 2.342 1.625 2.984A3.694 3.694 0 0 1 .26 5.796v.044c0 1.737 1.26 3.186 2.93 3.515a3.717 3.717 0 0 1-1.65.062c.466 1.424 1.815 2.46 3.414 2.49A7.425 7.425 0 0 1 .416 13.44c-.295 0-.586-.017-.871-.05a10.486 10.486 0 0 0 5.6 1.61c6.72 0 10.396-5.461 10.396-10.199 0-.155-.004-.31-.011-.464a7.347 7.347 0 0 0 1.823-1.856z"/><path fill="#fff" d="M17.353 2.482a7.394 7.394 0 0 1-2.098.565 3.605 3.605 0 0 0 1.606-1.983 7.41 7.41 0 0 1-2.32.87A3.681 3.681 0 0 0 11.874.802C9.857.802 8.22 2.407 8.22 4.387c0 .28.033.554.095.816A10.44 10.44 0 0 1 .785 1.46 3.513 3.513 0 0 0 .29 3.26c0 1.244.645 2.342 1.625 2.984A3.694 3.694 0 0 1 .26 5.796v.044c0 1.737 1.26 3.186 2.93 3.515a3.717 3.717 0 0 1-1.65.062c.466 1.424 1.815 2.46 3.414 2.49A7.425 7.425 0 0 1 .416 13.44c-.295 0-.586-.017-.871-.05a10.486 10.486 0 0 0 5.6 1.61c6.72 0 10.396-5.461 10.396-10.199 0-.155-.004-.31-.011-.464a7.347 7.347 0 0 0 1.823-1.856z"/></g></g></svg>